<svg width="203" height="65" viewBox="0 0 203 65" fill="none" xmlns="http://www.w3.org/2000/svg">
<rect width="203" height="65" fill="black" fill-opacity="0"/>
<rect width="203" height="65" fill="black" fill-opacity="0"/>
<path d="M64.7173 0H0V65H64.7173V0Z" fill="#006647"/>
<path d="M156.358 60.5331H158.879V58.0012H156.358V60.5331ZM170.034 49.186C169.82 49.0908 169.582 49.019 169.273 48.9472C168.988 48.8754 168.679 48.827 168.369 48.7803C168.06 48.7561 167.751 48.7318 167.466 48.7318C166.585 48.7318 165.777 48.8754 165.063 49.186C164.35 49.4731 163.731 49.9022 163.208 50.4281C162.708 50.9774 162.304 51.5985 162.018 52.3389C161.733 53.0794 161.614 53.8916 161.59 54.7756C161.613 55.6113 161.756 56.3759 162.018 57.1172C162.304 57.8334 162.708 58.4787 163.231 59.028C163.754 59.5773 164.373 60.0314 165.087 60.3419C165.8 60.6516 166.585 60.7952 167.465 60.8194C167.726 60.8194 167.988 60.7952 168.298 60.771C168.583 60.7476 168.892 60.7226 169.201 60.6508C169.51 60.5799 169.819 60.4838 170.128 60.3411L169.962 58.4295C169.748 58.573 169.486 58.6924 169.249 58.7884C168.988 58.9078 168.725 58.9796 168.44 59.0272C168.178 59.0747 167.916 59.099 167.679 59.099C167.132 59.099 166.656 59.0038 166.228 58.836C165.824 58.669 165.467 58.4545 165.158 58.1673C164.849 57.8802 164.611 57.5463 164.421 57.1873C164.23 56.8058 164.088 56.4235 163.992 56.0178C163.897 55.6112 163.849 55.1813 163.849 54.7756C163.849 54.2264 163.944 53.6771 164.087 53.1754C164.253 52.6495 164.491 52.1953 164.825 51.7896C165.133 51.3839 165.514 51.0492 165.966 50.8104C166.418 50.5709 166.965 50.4515 167.56 50.4515C167.892 50.4515 168.249 50.4749 168.653 50.5709C169.034 50.6427 169.438 50.7862 169.843 50.9532L170.034 49.186ZM171.794 54.7765C171.794 55.6121 171.937 56.3767 172.223 57.118C172.508 57.8343 172.888 58.4796 173.412 59.0288C173.935 59.5781 174.553 60.0322 175.268 60.3428C175.981 60.6525 176.766 60.7961 177.646 60.8203C178.502 60.7961 179.311 60.6525 180 60.3428C180.714 60.0322 181.332 59.5781 181.856 59.0288C182.379 58.4796 182.783 57.8343 183.045 57.118C183.331 56.3767 183.474 55.6121 183.474 54.7765C183.474 53.8924 183.331 53.0802 183.069 52.3398C182.784 51.5993 182.38 50.9782 181.88 50.429C181.357 49.903 180.739 49.4731 180.024 49.1868C179.312 48.8763 178.526 48.7327 177.647 48.7327C176.766 48.7327 175.958 48.8763 175.244 49.1868C174.531 49.474 173.912 49.903 173.389 50.429C172.888 50.9782 172.485 51.5993 172.199 52.3398C171.937 53.0794 171.794 53.8924 171.794 54.7765ZM174.031 54.7765C174.031 54.2272 174.126 53.6779 174.291 53.1762C174.434 52.6503 174.672 52.1962 174.981 51.7905C175.29 51.3848 175.671 51.05 176.123 50.8113C176.575 50.5717 177.074 50.4523 177.645 50.4523C178.216 50.4523 178.715 50.5717 179.144 50.8113C179.596 51.05 179.976 51.3848 180.285 51.7905C180.594 52.1962 180.832 52.6503 180.975 53.1762C181.141 53.6779 181.235 54.2272 181.235 54.7765C181.235 55.1822 181.188 55.6121 181.093 56.0186C180.998 56.4243 180.855 56.8067 180.689 57.1882C180.499 57.5471 180.261 57.881 179.976 58.1682C179.691 58.4553 179.357 58.6699 178.977 58.8368C178.573 59.0046 178.145 59.0998 177.645 59.0998C177.145 59.0998 176.693 59.0046 176.312 58.8368C175.909 58.6699 175.575 58.4553 175.289 58.1682C175.004 57.881 174.766 57.5471 174.576 57.1882C174.41 56.8067 174.267 56.4243 174.172 56.0186C174.078 55.6121 174.031 55.1822 174.031 54.7765ZM186.303 60.5331H188.42V54.7281C188.42 54.1788 188.468 53.6537 188.586 53.1512C188.705 52.6495 188.872 52.1953 189.11 51.7896C189.347 51.3839 189.656 51.0492 190.061 50.8104C190.442 50.5709 190.894 50.4515 191.441 50.4515C191.868 50.4515 192.201 50.5467 192.487 50.7387C192.748 50.9532 192.962 51.1919 193.105 51.5267C193.248 51.8372 193.343 52.1711 193.414 52.5535C193.463 52.9358 193.486 53.2939 193.486 53.652V60.5314H195.603V54.7264C195.603 54.1771 195.65 53.652 195.769 53.1495C195.888 52.6478 196.055 52.1937 196.292 51.788C196.553 51.3823 196.863 51.0475 197.244 50.8088C197.625 50.5692 198.076 50.4498 198.623 50.4498C199.052 50.4498 199.408 50.545 199.67 50.737C199.932 50.9515 200.145 51.1903 200.288 51.525C200.431 51.8355 200.549 52.1695 200.597 52.5518C200.645 52.9341 200.669 53.2922 200.669 53.6504V60.5298H202.785V53.1478C202.809 52.5034 202.738 51.9299 202.595 51.3806C202.452 50.8547 202.214 50.3772 201.905 49.9949C201.596 49.5892 201.168 49.2786 200.669 49.0633C200.169 48.8487 199.527 48.7293 198.814 48.7293C198.553 48.7293 198.242 48.7527 197.934 48.8496C197.601 48.9213 197.268 49.0407 196.935 49.2319C196.603 49.3988 196.293 49.6376 195.983 49.9239C195.698 50.2111 195.436 50.545 195.246 50.9757C195.032 50.4498 194.77 50.0191 194.413 49.6852C194.08 49.3512 193.7 49.1117 193.272 48.9689C192.867 48.802 192.415 48.7302 191.987 48.7302C191.131 48.7302 190.417 48.8738 189.822 49.2077C189.228 49.5182 188.728 50.0199 188.324 50.6652H188.276V48.9923H186.302V60.5331H186.303Z" fill="#E39222"/>
<path d="M69.3315 42.9752H72.2568V22.5991H69.3315V42.9752ZM77.6086 42.9752H80.5105V26.2296H80.5813L89.7383 42.9752H93.4726V22.5991H90.5707V39.01H90.5L81.5569 22.5991H77.6086V42.9752ZM115.449 22.5991H112.381L105.983 40.3949H105.912L99.6802 22.5991H96.422L104.056 42.9752H107.695L115.449 22.5991ZM118.565 42.9752H129.911V40.3949H121.466V33.6825H129.173V31.1264H121.466V25.1778H129.911V22.5983H118.565V42.9752ZM144.395 22.9815C143.943 22.8137 143.443 22.6943 142.968 22.5749C142.467 22.4798 141.969 22.3838 141.493 22.3362C140.993 22.2886 140.518 22.2644 140.066 22.2644C139.163 22.2644 138.306 22.3846 137.521 22.6233C136.736 22.8621 136.047 23.1968 135.452 23.6743C134.857 24.1284 134.405 24.7262 134.073 25.4182C133.74 26.0877 133.573 26.8991 133.573 27.8073C133.573 28.5953 133.692 29.264 133.953 29.8383C134.191 30.4118 134.524 30.9127 134.929 31.3434C135.357 31.7491 135.809 32.1073 136.332 32.4178C136.832 32.7283 137.379 33.0155 137.926 33.2776C138.472 33.5397 139.019 33.8035 139.519 34.0423C140.042 34.3044 140.495 34.5916 140.923 34.9021C141.327 35.1884 141.661 35.5465 141.921 35.9765C142.159 36.3822 142.278 36.8605 142.278 37.434C142.278 38.0308 142.136 38.5325 141.898 38.9625C141.637 39.3682 141.304 39.7271 140.923 39.9892C140.519 40.2522 140.091 40.4434 139.615 40.5627C139.163 40.6829 138.735 40.7539 138.307 40.7539C137.807 40.7539 137.284 40.6821 136.785 40.5869C136.261 40.4667 135.762 40.3482 135.287 40.2046C134.835 40.0376 134.43 39.8941 134.097 39.7505L133.812 42.4744C134.478 42.6889 135.144 42.9043 135.857 43.0712C136.546 43.2148 137.236 43.31 137.95 43.31C138.973 43.31 139.924 43.2148 140.828 42.9761C141.732 42.7607 142.517 42.4026 143.182 41.9251C143.872 41.4225 144.395 40.8015 144.776 40.0377C145.156 39.273 145.347 38.3414 145.371 37.242C145.347 36.4064 145.228 35.6901 144.991 35.0682C144.752 34.4471 144.419 33.8979 143.992 33.4437C143.587 32.9896 143.111 32.6073 142.612 32.2492C142.089 31.9153 141.566 31.6047 140.995 31.3418C140.448 31.0788 139.925 30.8159 139.401 30.5537C138.902 30.315 138.427 30.0512 137.998 29.7657C137.594 29.4785 137.26 29.168 137.022 28.809C136.785 28.4509 136.666 28.021 136.642 27.5427C136.666 27.0176 136.762 26.5635 136.975 26.2045C137.189 25.8706 137.45 25.5843 137.807 25.3923C138.164 25.1769 138.545 25.0342 138.949 24.9382C139.353 24.8664 139.781 24.8188 140.186 24.8188C140.566 24.8188 140.898 24.8422 141.209 24.8664C141.518 24.9148 141.826 24.9624 142.112 25.0342C142.398 25.1051 142.684 25.1769 142.993 25.2963C143.302 25.3915 143.635 25.5117 143.992 25.6786L144.395 22.9815ZM153.576 42.9752H156.478V25.1786H162.78V22.5991H147.272V25.1786H153.575V42.9752H153.576ZM167.941 32.7984C167.941 31.9628 168.012 31.1498 168.203 30.3617C168.368 29.5737 168.631 28.8566 168.987 28.188C169.344 27.5185 169.796 26.9216 170.319 26.4199C170.866 25.9182 171.484 25.5125 172.198 25.2495C172.911 24.9632 173.72 24.8196 174.624 24.8196C175.504 24.8196 176.312 24.9632 177.027 25.2495C177.74 25.5125 178.359 25.919 178.905 26.4199C179.429 26.9224 179.881 27.5185 180.238 28.188C180.595 28.8566 180.856 29.5729 181.022 30.3617C181.213 31.1498 181.284 31.9628 181.284 32.7984C181.284 33.6107 181.212 34.3987 181.046 35.1634C180.88 35.9514 180.642 36.6685 180.285 37.3371C179.953 38.0066 179.524 38.6043 178.977 39.1052C178.453 39.6311 177.836 40.0368 177.098 40.3231C176.385 40.6103 175.552 40.7539 174.624 40.7539C173.673 40.7539 172.84 40.6103 172.127 40.3231C171.389 40.0368 170.771 39.6311 170.248 39.1052C169.724 38.6035 169.272 38.0066 168.939 37.3371C168.607 36.6685 168.345 35.9522 168.179 35.1634C168.012 34.3987 167.941 33.6107 167.941 32.7984ZM164.85 32.7984C164.85 34.3269 165.088 35.7602 165.515 37.0508C165.944 38.3172 166.586 39.4391 167.418 40.3716C168.251 41.304 169.274 42.0202 170.487 42.5453C171.676 43.047 173.056 43.3091 174.626 43.3091C176.172 43.3091 177.552 43.047 178.74 42.5453C179.954 42.0194 180.977 41.3032 181.809 40.3716C182.642 39.4399 183.283 38.3172 183.711 37.0508C184.14 35.7602 184.377 34.3269 184.377 32.7984C184.377 31.27 184.14 29.86 183.711 28.5945C183.283 27.3281 182.642 26.2054 181.809 25.2495C180.977 24.3179 179.954 23.5775 178.74 23.0516C177.527 22.5265 176.148 22.2635 174.626 22.2635C173.08 22.2635 171.7 22.5265 170.487 23.0516C169.274 23.5775 168.275 24.3179 167.418 25.2495C166.586 26.2054 165.944 27.3281 165.515 28.5945C165.088 29.8609 164.85 31.27 164.85 32.7984ZM188.539 42.9752H191.441V33.9212H193.2C193.581 33.9212 193.938 33.9212 194.247 33.9446C194.556 33.993 194.865 34.0406 195.127 34.1834C195.413 34.2794 195.65 34.4939 195.888 34.7577C196.126 35.044 196.364 35.4263 196.578 35.9038L199.693 42.9752H203L199.17 34.8537C198.956 34.448 198.766 34.1132 198.576 33.8503C198.385 33.5882 198.195 33.3728 197.957 33.2292C197.743 33.0622 197.505 32.9187 197.196 32.8235V32.7509C197.98 32.6073 198.695 32.3452 199.336 31.9153C199.955 31.5095 200.454 30.9836 200.811 30.3384C201.191 29.6939 201.382 28.9526 201.382 28.117C201.382 27.137 201.239 26.3256 200.954 25.6803C200.668 25.0108 200.264 24.4857 199.764 24.0792C199.264 23.6735 198.67 23.363 198.004 23.1484C197.338 22.933 196.625 22.7895 195.864 22.7177C195.103 22.6459 194.318 22.5983 193.509 22.5983H188.538V42.9752H188.539ZM191.441 25.1786H194.247C195.127 25.1786 195.888 25.2988 196.483 25.5375C197.078 25.7763 197.53 26.1353 197.839 26.5885C198.148 27.0427 198.314 27.5686 198.314 28.1896C198.314 28.8341 198.123 29.4076 197.79 29.8617C197.434 30.3392 196.935 30.7215 196.269 30.9603C195.627 31.2224 194.842 31.3426 193.914 31.366H191.441V25.1786Z" fill="#666666"/>
<path d="M10.5371 42.9752H13.5814L15.6267 37.8396H25.5687L27.6382 42.9752H30.8015L22.2389 22.5991H19.1705L10.5371 42.9752ZM24.6405 35.4505H16.5774L20.5973 25.3464L24.6405 35.4505ZM33.7742 42.9752H36.6761V33.6825H44.2156V31.1264H36.6761V25.1777H44.5486V22.5983H33.7742V42.9752ZM48.5202 42.9752H51.4221V33.9212H53.1578C53.5391 33.9212 53.8953 33.9212 54.2283 33.9446C54.5372 33.993 54.8468 34.0406 55.1082 34.1833C55.3696 34.2793 55.631 34.4939 55.8691 34.7576C56.1072 35.044 56.3444 35.4263 56.5592 35.9038L59.6751 42.9752H62.9816L59.1523 34.8536C58.9383 34.4479 58.7477 34.1132 58.5579 33.8502C58.3673 33.5881 58.1533 33.3727 57.9394 33.2292C57.7255 33.0622 57.4632 32.9186 57.1777 32.8235V32.7508C57.9627 32.6073 58.6761 32.3451 59.2946 31.9152C59.9364 31.5095 60.4368 30.9836 60.7931 30.3383C61.1743 29.6939 61.34 28.9526 61.3641 28.117C61.3641 27.1369 61.1976 26.3256 60.9121 25.6803C60.6507 25.0108 60.2461 24.4857 59.7466 24.0792C59.2472 23.6735 58.6528 23.3629 57.9869 23.1484C57.3209 22.933 56.6075 22.7894 55.8466 22.7176C55.0849 22.6459 54.3008 22.5983 53.4916 22.5983H48.5202V42.9752ZM51.4221 25.1786H54.205C55.1091 25.1786 55.8466 25.2988 56.4643 25.5375C57.0587 25.7763 57.5107 26.1352 57.8195 26.5885C58.1292 27.0426 58.2716 27.5685 58.2716 28.1896C58.2716 28.8341 58.1051 29.4076 57.7488 29.8617C57.4158 30.3392 56.9163 30.7215 56.2504 30.9602C55.6085 31.2224 54.8235 31.3426 53.8953 31.3659H51.4221V25.1786Z" fill="white"/>
</svg>
