<svg width="104" height="104" viewBox="0 0 104 104" fill="none" xmlns="http://www.w3.org/2000/svg">
<rect width="104" height="104" fill="black" fill-opacity="0"/>
<circle cx="52" cy="52" r="52" fill="#FFF5EA"/>
<rect width="74" height="54.9991" fill="black" fill-opacity="0" transform="translate(18 24)"/>
<rect width="67.0356" height="46.403" fill="black" fill-opacity="0" transform="translate(18 32.5957)"/>
<path d="M85.0249 37.501V74.4266C85.0249 76.9595 82.9775 78.9988 80.4342 78.9988H22.6206L51.5715 61.3675L85.0249 37.501Z" fill="#ECEBE7"/>
<path d="M18 37.375V74.3006C18 76.8336 20.0474 78.8728 22.5907 78.8728H80.4043L51.4535 61.2416L18 37.375Z" fill="#DFDED9"/>
<path d="M22.6313 32.5957H80.445C82.9882 32.5957 85.0357 34.9756 85.0357 37.9318C85.0357 37.9318 65.3336 56.0584 53.4972 62.1165C52.8781 62.4333 52.1929 62.7162 51.4941 62.721C50.7858 62.7259 50.0845 62.454 49.455 62.1364C37.6073 56.1598 18.0405 37.9318 18.0405 37.9318C18.0405 34.9756 20.088 32.5957 22.6313 32.5957Z" fill="#C9C6C0"/>
<rect width="23.9586" height="23.4297" fill="black" fill-opacity="0" transform="translate(68.0415 24)"/>
<path d="M80.0208 47.4297C86.6368 47.4297 92.0001 42.1848 92.0001 35.7149C92.0001 29.2449 86.6368 24 80.0208 24C73.4048 24 68.0415 29.2449 68.0415 35.7149C68.0415 42.1848 73.4048 47.4297 80.0208 47.4297Z" fill="#EF2929"/>
<path d="M79.9357 27.2354C79.0824 27.2354 78.3223 27.8248 77.8788 28.4842C77.2305 29.4479 77.3367 30.7532 77.3549 31.9066C77.3851 33.8116 77.6599 35.7772 78.399 37.5304C78.8137 38.5142 79.1937 39.4146 80.0263 39.4116C80.7625 39.409 81.2634 38.3533 81.5077 37.5685C82.0969 35.6755 82.6705 33.8821 82.6976 31.9066C82.7146 30.6706 82.7547 29.2516 81.997 28.2621C81.5348 27.6585 80.7404 27.2354 79.9357 27.2354ZM80.0716 40.917C79.8516 40.917 79.6337 40.9594 79.4305 41.0417C79.2272 41.1241 79.0425 41.2447 78.887 41.3969C78.7314 41.549 78.608 41.7296 78.5238 41.9284C78.4396 42.1271 78.3963 42.3402 78.3963 42.5553C78.3963 42.7704 78.4396 42.9835 78.5238 43.1822C78.608 43.381 78.7314 43.5616 78.887 43.7137C79.0425 43.8659 79.2272 43.9865 79.4305 44.0689C79.6337 44.1512 79.8516 44.1936 80.0716 44.1936C80.2916 44.1936 80.5094 44.1512 80.7127 44.0689C80.9159 43.9865 81.1006 43.8659 81.2562 43.7137C81.4117 43.5616 81.5351 43.381 81.6193 43.1822C81.7035 42.9835 81.7468 42.7704 81.7468 42.5553C81.7468 42.3402 81.7035 42.1271 81.6193 41.9284C81.5351 41.7296 81.4117 41.549 81.2562 41.3969C81.1006 41.2447 80.9159 41.1241 80.7127 41.0417C80.5094 40.9594 80.2916 40.917 80.0716 40.917Z" fill="white"/>
</svg>
